<?xml version="1.0" encoding="utf-8"?>
<!-- Generator: Adobe Illustrator 23.0.2, SVG Export Plug-In . SVG Version: 6.00 Build 0)  -->
<svg version="1.1" id="Layer_1" xmlns="http://www.w3.org/2000/svg" xmlns:xlink="http://www.w3.org/1999/xlink" x="0px" y="0px"
	 viewBox="0 0 233.0454 252.8328" enable-background="new 0 0 233.0454 252.8328" xml:space="preserve">
<g>
	<ellipse cx="116.5227" cy="22.5" rx="23.207" ry="22.5"/>
	<path d="M88.6269,72.4775v31.6146h55.7917V71.3295c3.3226,4.5885,7.338,13.937,8.7874,32.7626h16.0247
		c-1.6121-22.6425-6.9304-38.3321-15.9086-46.8143c-6.9123-6.5297-13.6584-6.6443-15.7531-6.4943
		c-0.3674-0.0503-0.7399-0.0853-1.1216-0.0853h-9.2089c1.3411,7.6188,4.6993,30.447-2.2958,34.9623
		c-0.426,0.2751-0.8164,0.5264-1.2015,0.7736l-3.192-23.5156c-1.2953,0.4861-2.6577,0.7405-4.0207,0.7405h-0.0059h-0.0019
		c-1.3646,0.0009-2.7292-0.2531-4.0266-0.7394l-3.1909,23.5145c-0.3853-0.2473-0.776-0.4985-1.2023-0.7736
		c-6.9918-4.5153-3.6356-27.3434-2.2954-34.9623h-9.2071c-0.321,0-0.6357,0.0236-0.9468,0.0594
		c-2.5945-0.0602-8.8001,0.5226-15.1479,6.5202C71.5253,65.76,66.207,81.4496,64.595,104.0921h16.0247
		C81.9571,86.7205,85.4792,77.4148,88.6269,72.4775z"/>
	<path d="M122.2217,58.2409l-1.9004-7.5h-3.7989h-3.8007l-1.9004,7.5l0.2916,0.4603c1.5648,1.3029,3.4798,1.956,5.4077,1.9578
		c1.928-0.0018,3.8464-0.6564,5.4124-1.9622L122.2217,58.2409z"/>
	<path d="M65.2665,165.0947c4.5511-3.68,10.3373-5.8903,16.6324-5.8903c9.4876,0,17.8222,5.0146,22.5044,12.5297
		c3.6353-1.8784,7.7543-2.9464,12.1206-2.9464s8.4854,1.068,12.1206,2.9464c4.6822-7.515,13.0168-12.5297,22.5044-12.5297
		c6.2939,0,12.079,2.2094,16.6297,5.8881l2.8087-45.5004h8.4043v-11.5H54.0534v11.5h8.4043L65.2665,165.0947z"/>
	<path d="M71.6297,205.722c3.0796,1.5831,6.5684,2.4824,10.2691,2.4824c3.7012,0,7.19-0.8991,10.2695-2.4821
		c-1.3781-3.2042-2.1443-6.7311-2.1443-10.4346c0-8.8201,4.3351-16.6423,10.9824-21.4619
		c-3.9718-6.3758-11.0417-10.6215-19.1075-10.6215c-8.0646,0-15.1349,4.2457-19.1071,10.6216
		c6.6472,4.8196,10.9822,12.6417,10.9822,21.4617C73.7739,198.991,73.0077,202.5179,71.6297,205.722z"/>
	<path d="M151.1488,163.2044c-8.0646,0-15.1349,4.2457-19.1071,10.6216c6.6472,4.8196,10.9822,12.6417,10.9822,21.4617
		c0,3.7033-0.7662,7.2302-2.1442,10.4343c3.0796,1.5831,6.5684,2.4824,10.2691,2.4824c3.7012,0,7.19-0.8991,10.2695-2.4821
		c-1.3781-3.2042-2.1443-6.7311-2.1443-10.4346c0-8.8201,4.3351-16.6423,10.9824-21.4619
		C166.2845,167.4501,159.2147,163.2044,151.1488,163.2044z"/>
	<path d="M33.6015,213.1526h27.3447c5.3651-4.1124,8.8272-10.5828,8.8272-17.8649c0-12.4272-10.0723-22.5-22.5-22.5
		c-12.4258,0-22.5,10.0728-22.5,22.5C24.7734,202.5698,28.2363,209.0403,33.6015,213.1526z"/>
	<path d="M116.5234,172.7877c-12.4258,0-22.5,10.0728-22.5,22.5c0,7.2821,3.4628,13.7526,8.8281,17.8649h27.3447
		c5.3651-4.1124,8.8272-10.5828,8.8272-17.8649C139.0234,182.8605,128.9512,172.7877,116.5234,172.7877z"/>
	<path d="M163.2734,195.2877c0,7.2821,3.4628,13.7526,8.8281,17.8649h27.3447c5.3651-4.1124,8.8272-10.5828,8.8272-17.8649
		c0-12.4272-10.0723-22.5-22.5-22.5C173.3477,172.7877,163.2734,182.8605,163.2734,195.2877z"/>
	<path d="M166.4561,217.1522c-0.1646,0-0.3247,0.0146-0.4868,0.0249c-2.8145,0.0659-8.2964,0.9736-13.9063,6.2451
		c-0.3105,0.292-0.6133,0.6011-0.915,0.9106c-0.3018-0.3096-0.6045-0.6187-0.915-0.9106c-5.627-5.2871-11.125-6.1855-13.9326-6.2466
		c-0.1528-0.0093-0.3047-0.0234-0.4595-0.0234H97.2061c-0.1646,0-0.3252,0.0146-0.4868,0.0249
		c-2.8149,0.0664-8.2964,0.9741-13.9063,6.2451c-0.3105,0.292-0.6133,0.6011-0.915,0.9106
		c-0.3018-0.3096-0.6045-0.6187-0.915-0.9106c-5.627-5.2871-11.125-6.1855-13.9326-6.2466
		c-0.1528-0.0093-0.3047-0.0234-0.4595-0.0234H27.9561c-0.1641,0-0.3242,0.0146-0.4858,0.0249
		c-2.8145,0.0654-8.2954,0.9722-13.9072,6.2451C7.1567,229.4412,2.6313,239.2786,0,252.8328h16.3735
		c1.127-4.9102,2.4668-8.7036,3.854-11.5884v11.5884h192.5918v-11.5859c1.3867,2.8848,2.7261,6.6772,3.853,11.5859h16.373
		c-2.6309-13.5537-7.1563-23.3911-13.5625-29.4106c-5.6265-5.2866-11.125-6.1855-13.9326-6.2466
		c-0.1528-0.0093-0.3042-0.0234-0.4595-0.0234H166.4561z"/>
</g>
</svg>
